<?xml version="1.0" standalone="no"?>
<!DOCTYPE svg PUBLIC "-//W3C//DTD SVG 20010904//EN"
 "http://www.w3.org/TR/2001/REC-SVG-20010904/DTD/svg10.dtd">
<svg version="1.0" xmlns="http://www.w3.org/2000/svg"
 width="512.000000pt" height="512.000000pt" viewBox="0 0 512.000000 512.000000"
 preserveAspectRatio="xMidYMid meet">

<g transform="translate(0.000000,512.000000) scale(0.100000,-0.100000)"
fill="#000000" stroke="none">
<path d="M4583 4896 c-18 -8 -56 -33 -85 -55 -81 -61 -152 -89 -310 -122 -218
-46 -262 -71 -504 -281 -90 -79 -180 -128 -236 -128 -21 0 -65 11 -98 25 -105
44 -146 38 -313 -49 -173 -90 -236 -110 -327 -104 -58 4 -80 12 -157 57 -49
28 -100 51 -114 51 -14 0 -56 -16 -92 -35 -36 -19 -75 -35 -87 -35 -32 0 -77
51 -89 101 -6 24 -16 63 -22 86 -14 51 -68 117 -118 142 -20 11 -74 24 -119
29 -64 8 -89 15 -107 32 l-24 23 -653 -37 c-359 -20 -672 -39 -696 -42 l-42
-5 0 -1709 0 -1709 57 -6 c83 -9 297 -63 357 -89 114 -51 163 -124 151 -226
-6 -55 -5 -59 18 -74 42 -28 161 -47 243 -40 57 5 84 3 116 -10 48 -18 59 -32
89 -111 34 -92 84 -105 219 -55 96 36 125 37 233 9 106 -27 177 -27 221 0 19
12 59 50 90 85 60 69 105 96 159 96 47 0 62 -36 53 -129 -10 -116 13 -148 123
-172 67 -14 98 -40 106 -89 9 -53 38 -87 86 -100 80 -22 154 32 184 133 12 40
29 67 70 109 l55 56 0 83 c0 149 36 261 111 352 l29 35 40 -19 c21 -10 45 -19
53 -19 22 0 27 -11 16 -32 -8 -14 -7 -25 5 -42 22 -34 59 -40 111 -17 65 29
78 61 85 212 5 110 9 133 34 182 45 93 150 170 252 184 25 3 77 0 115 -7 50
-10 75 -10 92 -3 13 6 49 49 80 95 65 98 173 204 282 278 93 63 110 94 125
231 20 181 55 291 160 513 66 139 95 248 87 333 -7 75 -37 146 -78 189 -36 37
-32 54 26 98 19 15 42 40 50 56 36 69 37 116 13 422 -26 340 -32 986 -10 1136
11 76 10 85 -6 103 -25 26 -70 32 -109 15z"/>
</g>
</svg>
